<?xml version="1.0" encoding="UTF-8"?>
<!-- Generator: visioncortex VTracer -->
<svg id="svg" version="1.1" xmlns="http://www.w3.org/2000/svg" style="display: block;" viewBox="0 0 841 926"><path d="M0 0 C20.80747709 15.00295223 34.19613307 38.53141933 42.6640625 62.33984375 C44.15523239 66.42530045 45.87522623 70.34489544 47.7265625 74.27734375 C48.80045199 76.57335901 49.83368597 78.87982517 50.85546875 81.19921875 C53.4229597 86.99590654 56.1682608 92.70525933 58.90820312 98.421875 C59.48538086 99.63230469 59.48538086 99.63230469 60.07421875 100.8671875 C60.59375122 101.95169189 60.59375122 101.95169189 61.1237793 103.05810547 C65.73853108 113.2853932 63.57197272 126.87786554 59.765625 136.984375 C55.86368124 146.12633915 51.59271984 155.53607191 46.125 163.8515625 C44.58116092 166.19091593 44.58116092 166.19091593 46.125 169.75 C46.42277344 170.52859375 46.72054687 171.3071875 47.02734375 172.109375 C52.72625406 189.04589561 53.66603689 209.81821106 46.25 226.3125 C42.61115729 232.88186108 37.55692435 238.34032129 31 242 C30.34 242 29.68 242 29 242 C29.58007812 242.68964844 30.16015625 243.37929688 30.7578125 244.08984375 C39.28185389 254.34401235 45.15081594 263.13562171 49 276 C49.23138672 276.72155273 49.46277344 277.44310547 49.70117188 278.18652344 C59.00002401 307.93529023 54.25946398 340.12179799 48.3795166 370.05639648 C47.83767518 372.83130776 47.32410247 375.61144091 46.8046875 378.390625 C45.66532578 384.29163995 44.36792561 390.14803466 43 396 C42.84660156 396.65635437 42.69320312 397.31270874 42.53515625 397.98895264 C38.13708448 416.73927695 33.38458676 435.22219248 26.91967773 453.38500977 C25.56672063 457.23197646 24.29099012 461.10383395 23.0065918 464.97412109 C21.38578565 469.84636735 19.73179197 474.7066784 18.0625 479.5625 C17.74087891 480.51318359 17.41925781 481.46386719 17.08789062 482.44335938 C14.77297666 489.15980602 12.04441781 495.5832443 9 502 C8.48695313 503.093125 7.97390625 504.18625 7.4453125 505.3125 C0.16612871 520.12930013 -9.2813361 532.44359452 -21 544 C-22.03314257 545.06457282 -23.06426111 546.13111226 -24.09375 547.19921875 C-30.66384861 553.95645568 -37.31504275 560.07581518 -44.890625 565.68359375 C-48.86861894 568.64709929 -52.66317829 571.80748475 -56.46484375 574.9921875 C-59.2132055 577.16885613 -62.07980661 579.06041476 -65 581 C-67.58675426 582.88466033 -70.13701121 584.8166491 -72.6875 586.75 C-77.4249716 590.33617291 -82.18959784 593.84841733 -87.0625 597.25 C-91.79473532 600.68457317 -95.37838224 604.43676163 -99 609 C-99.76570313 609.92683594 -100.53140625 610.85367188 -101.3203125 611.80859375 C-105.61614473 616.96373871 -105.61614473 616.96373871 -109.640625 622.328125 C-110.08921875 622.87984375 -110.5378125 623.4315625 -111 624 C-111.66 624 -112.32 624 -113 624 C-113.37125 624.86625 -113.37125 624.86625 -113.75 625.75 C-115 628 -115 628 -117.1875 630 C-117.785625 630.66 -118.38375 631.32 -119 632 C-118.64032152 635.43852625 -117.07446817 637.4866475 -114.9375 640.125 C-114.30199219 640.91777344 -113.66648437 641.71054687 -113.01171875 642.52734375 C-112.34785156 643.34332031 -111.68398438 644.15929687 -111 645 C-109.74903672 646.56172889 -108.49905756 648.12424652 -107.25 649.6875 C-106.59515625 650.50605469 -105.9403125 651.32460938 -105.265625 652.16796875 C-104.51796875 653.10253906 -103.7703125 654.03710938 -103 655 C-102.52884766 655.58604004 -102.05769531 656.17208008 -101.57226562 656.77587891 C-100.043379 658.68013558 -98.52124672 660.58963696 -97 662.5 C-96.50661133 663.11190186 -96.01322266 663.72380371 -95.50488281 664.35424805 C-92 668.77255839 -92 668.77255839 -92 671 C-91.34 671 -90.68 671 -90 671 C-88.53809653 672.75964348 -87.15571415 674.58566775 -85.8125 676.4375 C-84.99544248 677.55256051 -84.17772896 678.66714062 -83.359375 679.78125 C-82.58078125 680.8434375 -81.8021875 681.905625 -81 683 C-79.86158766 684.48488566 -78.716539 685.96472641 -77.5625 687.4375 C-75.19559583 690.46278441 -72.84499709 693.49972131 -70.50756836 696.54785156 C-66.36519398 701.94878076 -62.19760874 707.32936773 -58 712.6875 C-57.53110352 713.28780029 -57.06220703 713.88810059 -56.57910156 714.5065918 C-53.5496576 719.03184986 -53.5496576 719.03184986 -49.02319336 721.23950195 C-48.22018799 721.23909912 -47.41718262 721.23869629 -46.58984375 721.23828125 C-45.69040039 721.25076904 -44.79095703 721.26325684 -43.86425781 721.27612305 C-42.89842773 721.28812744 -41.93259766 721.30013184 -40.9375 721.3125 C-21.87373182 721.88005917 -6.05879399 727.71892653 8 741 C8 741.66 8 742.32 8 743 C8.66 743 9.32 743 10 743 C13.50202278 746.26619633 16.67496039 749.81607744 19.875 753.375 C38.48899325 773.78264668 58.3292337 789.52283084 83 802 C83.83273437 802.4228125 84.66546875 802.845625 85.5234375 803.28125 C90.62156221 805.71068127 95.7942608 807.06539129 101.30078125 808.2890625 C104 809 104 809 105.89624023 809.98193359 C109.63090852 811.78924086 113.69045351 812.26861415 117.75 813 C118.70342285 813.17370117 119.6568457 813.34740234 120.63916016 813.52636719 C131.68786732 815.43743677 142.81990822 816.27566432 154 817 C154 819 154 819 152.375 820.734375 C134.76043632 835.68357707 109.5174259 837.15585123 87.296875 835.77758789 C66.08243886 833.99390911 47.08318124 825.8625396 29 815 C27.54013672 814.18789062 27.54013672 814.18789062 26.05078125 813.359375 C25.37402344 812.91078125 24.69726562 812.4621875 24 812 C24 811.34 24 810.68 24 810 C21.66785852 808.79371992 19.50357861 807.8345262 17 807 C17 806.34 17 805.68 17 805 C16.12021484 804.59587891 16.12021484 804.59587891 15.22265625 804.18359375 C13.00290721 803.00154813 11.32160632 801.71899616 9.4375 800.0625 C8.85871094 799.55847656 8.27992188 799.05445313 7.68359375 798.53515625 C6.07330641 797.0668432 4.52674321 795.55458655 3 794 C14.44077292 818.36255203 35.66151693 832.38518857 60 842 C62.58349499 842.88548544 65.15280297 843.68550116 67.7890625 844.39453125 C70 845 70 845 72.6640625 845.98046875 C77.79864611 847.54970332 83.0534312 848.13320215 88.36328125 848.85546875 C89.59884766 849.03529297 89.59884766 849.03529297 90.859375 849.21875 C91.60670898 849.32123047 92.35404297 849.42371094 93.12402344 849.52929688 C95 850 95 850 97 852 C91.70670698 853.76443101 85.9869225 853.18590533 80.44360352 853.18530273 C78.23368043 853.18745502 76.02428558 853.20551849 73.81445312 853.22460938 C64.70689343 853.26129494 55.99397943 852.58406543 47 851 C46.16476807 850.85925049 45.32953613 850.71850098 44.46899414 850.57348633 C23.79633813 846.9261608 3.1216339 840.51438983 -14.1328125 828.26171875 C-16.02322943 826.98430312 -17.93987694 825.97512492 -20 825 C1.07114632 844.11394498 21.31415593 854.55045678 49 861 C45.58209195 864.41790805 41.02842609 863.9062765 36.35742188 864.01123047 C-1.62729101 863.83027595 -37.03367955 850.30032384 -65.26953125 824.84765625 C-67 823 -67 823 -67 821 C-67.99 820.67 -68.98 820.34 -70 820 C-78.24298715 811.40225138 -84.64974072 800.02639975 -89 789 C-89.53367187 787.91525391 -89.53367187 787.91525391 -90.078125 786.80859375 C-94.49581387 773.3496179 -90.23271893 757.31202005 -84.25 745.125 C-83.51248213 743.74326472 -82.76757074 742.36526926 -82 741 C-87.50589337 734.18135891 -93.11465278 727.49472922 -99 721 C-100.73604446 723.60406669 -101.43559852 725.06406904 -102.2265625 727.97265625 C-102.44981201 728.77735352 -102.67306152 729.58205078 -102.90307617 730.41113281 C-103.14131104 731.28608398 -103.3795459 732.16103516 -103.625 733.0625 C-106.02310403 741.66437839 -108.55491639 750.21694499 -111.1875 758.75 C-111.52023926 759.831604 -111.85297852 760.91320801 -112.19580078 762.02758789 C-113.85676516 767.39965225 -115.55745428 772.75173832 -117.38012695 778.07128906 C-118.01009679 780.03141578 -118.52287617 781.99769918 -119 784 C-118.42032471 784.29132812 -117.84064941 784.58265625 -117.2434082 784.8828125 C-114.58793508 786.23324201 -111.95067392 787.61609977 -109.3125 789 C-108.40048828 789.45761719 -107.48847656 789.91523437 -106.54882812 790.38671875 C-100.38417958 793.6595867 -97.02593373 796.70968229 -94 803 C-93.23042969 804.49466797 -93.23042969 804.49466797 -92.4453125 806.01953125 C-92.00960938 806.94121094 -91.57390625 807.86289062 -91.125 808.8125 C-88.60587154 813.95490693 -85.75295105 818.74205392 -82.61328125 823.52734375 C-78 830.59806295 -78 830.59806295 -78 834 C-139.05 834 -200.1 834 -263 834 C-261.84797184 814.4155212 -261.84797184 814.4155212 -260.6171875 807.79296875 C-260.48236969 807.02734619 -260.34755188 806.26172363 -260.20864868 805.47290039 C-259.77588626 803.04212224 -259.32699889 800.61476891 -258.875 798.1875 C-258.643573 796.92082993 -258.643573 796.92082993 -258.4074707 795.62857056 C-255.58806385 780.23448617 -252.07145608 765.11387482 -248 750 C-247.39209249 747.6891008 -246.78533301 745.37789931 -246.1796875 743.06640625 C-243.07158714 731.27856103 -239.7717828 719.59251729 -236 708 C-224.83239125 678.23380848 -224.83239125 678.23380848 -228 648 C-228.25797363 647.369729 -228.51594727 646.73945801 -228.78173828 646.09008789 C-231.30908991 640.3589592 -234.74865296 637.1753314 -239.6875 633.4375 C-240.7561731 632.60061646 -240.7561731 632.60061646 -241.84643555 631.74682617 C-243.8880422 630.15168305 -245.94312564 628.57536688 -248 627 C-249.77120948 625.60464399 -251.54213463 624.20892681 -253.3125 622.8125 C-255.50647915 621.10990321 -257.68466457 619.54355695 -260 618 C-260 617.34 -260 616.68 -260 616 C-260.74378906 615.7421875 -261.48757813 615.484375 -262.25390625 615.21875 C-265.10710394 613.95246596 -266.70660548 612.6557951 -268.9375 610.5 C-272.74606962 606.99611595 -276.70757713 603.96123047 -280.9375 601 C-285.98187387 597.46806289 -290.8272173 593.78855699 -295.6015625 589.89453125 C-299.59840128 586.73741919 -303.79129289 583.86550271 -308 581 C-308.2475 582.216875 -308.495 583.43375 -308.75 584.6875 C-314.58470636 610.36814638 -326.84098445 635.32240791 -341.83984375 656.87109375 C-343.64987488 659.49285674 -345.31814314 662.13417809 -346.9375 664.875 C-349 668 -349 668 -352 669 C-352.67104143 670.99853643 -353.3368617 672.99882733 -354 675 C-355.49046729 677.15813014 -356.97597854 679.16250536 -358.625 681.1875 C-359.53649888 682.33617545 -360.44663766 683.48593138 -361.35546875 684.63671875 C-361.80583496 685.20438965 -362.25620117 685.77206055 -362.72021484 686.35693359 C-364.53403621 688.68562832 -366.23340796 691.09027978 -367.9375 693.5 C-371.4013935 698.31018409 -375.14730797 702.8100718 -379.00366211 707.3046875 C-381.58363697 710.31413569 -384.09302269 713.34841819 -386.5 716.5 C-389.83244948 720.85781856 -393.37779247 725.01581539 -396.93994141 729.18554688 C-399.67264756 732.39560225 -402.3161788 735.64783249 -404.875 739 C-407.36870718 742.26329623 -410.05154362 745.13344518 -413 748 C-413.556875 748.763125 -414.11375 749.52625 -414.6875 750.3125 C-415.120625 750.869375 -415.55375 751.42625 -416 752 C-416.66 752 -417.32 752 -418 752 C-418.35578125 752.81791016 -418.35578125 752.81791016 -418.71875 753.65234375 C-420.32917574 756.60315433 -422.34152106 758.98704217 -424.5 761.5625 C-426.81239639 764.32911711 -428.99917699 766.99876548 -431 770 C-431.66 770 -432.32 770 -433 770 C-433.25394531 770.56589844 -433.50789062 771.13179687 -433.76953125 771.71484375 C-435.60935826 775.13166534 -438.14554066 777.91844812 -440.63671875 780.87890625 C-441.08660156 781.57886719 -441.53648437 782.27882813 -442 783 C-440.68251921 786.95244236 -438.97422702 787.47117866 -435.4375 789.5625 C-433.59257241 790.65535519 -431.77014847 791.78976669 -430 793 C-430 793.66 -430 794.32 -430 795 C-429.28328125 795.24492188 -428.5665625 795.48984375 -427.828125 795.7421875 C-422.5205992 798.10271693 -418.38582782 802.25364639 -414 806 C-413.19691406 806.66644531 -412.39382813 807.33289063 -411.56640625 808.01953125 C-397.02450084 820.39401228 -397.02450084 820.39401228 -395.9375 829.0625 C-396 833 -396 833 -397 834 C-399.42849471 834.09768222 -401.82851363 834.12996531 -404.25746155 834.12025452 C-405.02602382 834.12110894 -405.79458609 834.12196337 -406.58643812 834.12284368 C-409.18142786 834.12450081 -411.77635403 834.11897334 -414.37133789 834.11352539 C-416.22367857 834.11324354 -418.07601937 834.1134012 -419.92835999 834.1139679 C-424.97360411 834.11425597 -430.01882468 834.10835773 -435.06406331 834.10139394 C-440.33050369 834.09516195 -445.59694456 834.09455672 -450.86338806 834.09336853 C-460.84357958 834.09025475 -470.8237602 834.08204075 -480.80394691 834.07201904 C-492.1628819 834.06085933 -503.5218174 834.05534781 -514.8807565 834.05032361 C-538.25384372 834.03985817 -561.62692125 834.02225784 -585 834 C-584.86053399 832.09854803 -584.71558164 830.19749802 -584.56835938 828.29663086 C-584.48823608 827.23794296 -584.40811279 826.17925507 -584.32556152 825.08848572 C-583.8669824 820.73810958 -582.78421099 816.7313907 -581.5 812.5625 C-581.24371826 811.69778076 -580.98743652 810.83306152 -580.72338867 809.94213867 C-579.83167073 806.95630169 -578.91817239 803.97780724 -578 801 C-577.44820068 799.2046582 -577.44820068 799.2046582 -576.88525391 797.37304688 C-574.95618557 791.10440666 -573.01050695 784.84116397 -571.05078125 778.58203125 C-569.5431917 773.76530171 -568.07144069 768.94000732 -566.64501953 764.09863281 C-565.10841897 759.09915576 -563.16454903 754.31956973 -561 749.5625 C-559.64903392 746.57911657 -558.49805471 743.61892098 -557.5 740.5 C-555.9879269 735.82777413 -554.07268015 731.44867934 -552 727 C-551.73058594 726.4121875 -551.46117187 725.824375 -551.18359375 725.21875 C-543.51063349 708.47774579 -535.05088607 692.44010112 -525 677 C-524.57541504 676.34725098 -524.15083008 675.69450195 -523.71337891 675.02197266 C-509.69540121 653.56176183 -509.69540121 653.56176183 -502 646 C-499.68754066 643.5818989 -497.40578694 641.13545861 -495.125 638.6875 C-494.50512207 638.02250488 -493.88524414 637.35750977 -493.24658203 636.67236328 C-488.29842138 631.3492828 -483.38479485 626.01606408 -478.875 620.3125 C-476.73899794 617.67809746 -474.42638546 615.37124033 -472 613 C-470.60113316 611.62808628 -469.20549214 610.2528783 -467.8125 608.875 C-466.80123047 607.88113281 -466.80123047 607.88113281 -465.76953125 606.8671875 C-460.96120309 601.79349906 -460.89031087 596.99331931 -460.75390625 590.27734375 C-460.72252178 588.93521496 -460.69085258 587.5930928 -460.65893555 586.25097656 C-460.64357758 585.54847778 -460.6282196 584.845979 -460.61239624 584.12219238 C-459.15214126 520.18535222 -459.15214126 520.18535222 -450.671875 494.07128906 C-450.15936789 492.49130711 -449.66214643 490.90635844 -449.171875 489.31933594 C-439.47300149 457.93156203 -422.72459003 428.14195823 -399 405 C-401.91972862 402.63310011 -401.91972862 402.63310011 -405.75 403.125 C-410.28615411 403.19963508 -413.54757257 401.93807029 -417 399 C-420.12479147 395.47409658 -422.82802333 391.68113877 -425.51953125 387.8203125 C-427.60006426 385.26219012 -430.01976301 384.33806559 -433 383 C-434.33333333 382.33333333 -435.66666667 381.66666667 -437 381 C-437 380.34 -437 379.68 -437 379 C-437.556875 378.814375 -438.11375 378.62875 -438.6875 378.4375 C-442.8825694 375.82975416 -445.45708016 371.62875951 -447 367 C-446.87239715 364.79075125 -446.68462883 362.58480184 -446.46484375 360.3828125 C-444.89417344 346.40933957 -444.89417344 346.40933957 -448.60107422 333.36572266 C-453.27182872 328.59268074 -459.01606583 325.79934546 -465 323 C-466.8262918 321.91879765 -468.64252783 320.81993772 -470.4375 319.6875 C-471.19417969 319.25308594 -471.95085937 318.81867188 -472.73046875 318.37109375 C-476.32573205 316.19908443 -479.65724088 313.69019243 -483.02734375 311.1875 C-485.10841117 309.6560969 -487.19391586 308.15847226 -489.31640625 306.6875 C-497.47452974 301.01543189 -505.0556275 294.88745124 -512.50341797 288.31298828 C-513.7926409 287.18192124 -515.09978082 286.0713358 -516.41015625 284.96484375 C-527.23645853 275.80733566 -527.23645853 275.80733566 -530.0078125 269.82421875 C-530.92348425 267.64645133 -530.92348425 267.64645133 -534 267 C-535.40698242 265.36450195 -535.40698242 265.36450195 -536.85546875 263.23828125 C-537.6599646 262.06446899 -537.6599646 262.06446899 -538.48071289 260.86694336 C-539.32557251 259.6024939 -539.32557251 259.6024939 -540.1875 258.3125 C-541.05652954 257.02388062 -541.05652954 257.02388062 -541.94311523 255.70922852 C-548.65677724 245.65791206 -555.09376897 235.50943071 -559 224 C-559.37125 223.02546875 -559.7425 222.0509375 -560.125 221.046875 C-562.71191518 213.46577635 -563.36173359 206.59811229 -563.375 198.625 C-563.37661133 197.6978418 -563.37822266 196.77068359 -563.37988281 195.81542969 C-563.18458076 183.75444301 -560.13339936 174.77830451 -551.5 166.25 C-549.67305985 164.49332678 -547.84020016 162.7427778 -546 161 C-545.30132813 160.30003906 -544.60265625 159.60007813 -543.8828125 158.87890625 C-537.79405412 152.80278015 -531.12000946 147.79918042 -524 143 C-522.78183594 142.16275391 -522.78183594 142.16275391 -521.5390625 141.30859375 C-498.82957665 125.89145013 -475.19453836 111.0086755 -450 100 C-448.69740418 99.41389807 -447.39533643 98.82662138 -446.09375 98.23828125 C-436.86526701 94.09723779 -427.49893034 90.46802489 -418 87 C-417.10539063 86.65324219 -416.21078125 86.30648437 -415.2890625 85.94921875 C-398.63017024 79.56418591 -381.20801092 75.66464843 -363.69384766 72.48876953 C-361.50497064 72.09162146 -359.32014672 71.67218232 -357.13671875 71.24609375 C-330.77403378 66.81617136 -303.00394753 69.82932755 -277.32275391 76.42578125 C-274.17288739 77.20447434 -270.99747492 77.82034223 -267.8125 78.4375 C-250.85973763 82.06450944 -234.6674678 88.4222847 -220.6875 98.8125 C-214.06337855 103.68151235 -206.26897491 106.56166622 -198 106 C-195.50401747 105.46957006 -193.02395981 104.86018144 -190.5625 104.1875 C-189.30566406 103.85105469 -188.04882812 103.51460938 -186.75390625 103.16796875 C-182.99477961 101.99837576 -179.58379256 100.61807161 -176 99 C-175.32453125 98.69578125 -174.6490625 98.3915625 -173.953125 98.078125 C-165.87566267 94.15055157 -158.1318798 89.62905924 -152 83 C-150.04179559 81.25578493 -148.0557855 79.54768761 -146.0625 77.84375 C-143.61117047 75.65240997 -141.31859885 73.33139584 -139 71 C-137.88337227 69.88004135 -137.88337227 69.88004135 -136.7441864 68.73745728 C-135.97999893 67.9702536 -135.21581146 67.20304993 -134.4284668 66.41259766 C-130.08833771 62.05645389 -125.74599466 57.70252903 -121.40202618 53.350214 C-118.78499265 50.72796684 -116.16890294 48.1047922 -113.55493164 45.47949219 C-111.00969546 42.9233035 -108.46194555 40.36964422 -105.91251564 37.8176384 C-104.48632012 36.38873433 -103.06266721 34.95729389 -101.63908386 33.52578735 C-90.28187955 22.16761287 -90.28187955 22.16761287 -86 19 C-85.34 19 -84.68 19 -84 19 C-83.67 18.01 -83.34 17.02 -83 16 C-80.91199917 14.15314856 -78.83367943 12.44041601 -76.625 10.75 C-75.99158691 10.26128418 -75.35817383 9.77256836 -74.70556641 9.26904297 C-51.67233118 -8.30300233 -25.77314947 -17.88425275 0 0 Z M-37.75 97.3125 C-38.4925 98.199375 -39.235 99.08625 -40 100 C-40.86625 100.86625 -41.7325 101.7325 -42.625 102.625 C-47.73012853 109.02666911 -48.36297417 116.52252433 -47.625 124.4375 C-45.17069964 138.77119501 -37.03468099 146.57049934 -26 155 C-27.43758616 159.03261349 -29.39566539 162.2866017 -31.8125 165.8125 C-32.52277344 166.86953125 -33.23304688 167.9265625 -33.96484375 169.015625 C-35.14602541 170.74772249 -36.34003665 172.47147227 -37.56640625 174.171875 C-41.24293466 179.48363545 -42.32184187 184.62164781 -43 191 C-43.09539063 191.7528125 -43.19078125 192.505625 -43.2890625 193.28125 C-43.92022101 202.44965777 -39.58305601 210.58168608 -33.75 217.375 C-23.54715637 227.8808984 -11.23019431 232.99584385 3.34936523 233.29223633 C13.92770384 233.36946406 22.83161947 232.98098222 31.6875 226.5625 C34.10571238 224.21525235 34.10571238 224.21525235 34.875 221.5 C33.63914337 217.96898106 31.58961833 217.04467517 28.45166016 215.16357422 C24.07545843 213.08659977 19.51100869 212.49549082 14.75 211.8125 C13.73671631 211.65233398 12.72343262 211.49216797 11.67944336 211.32714844 C9.68635502 211.01306471 7.69214594 210.70599386 5.69677734 210.40673828 C2.31085975 209.89606123 -1.06224592 209.32665631 -4.4375 208.75 C-5.95818128 208.49907677 -7.4789378 208.24860371 -9 208 C-8.67 207.34 -8.34 206.68 -8 206 C-4.99978513 206.14214728 -1.99988211 206.28861696 1 206.4375 C1.83917969 206.47681641 2.67835938 206.51613281 3.54296875 206.55664062 C7.47715527 206.75487483 11.37039648 207.00809988 15.27734375 207.51953125 C23.00314503 208.51667035 30.15518754 209.13540753 37 205 C40.62723436 200.15529115 40.24343857 196.64335672 39.65234375 190.83203125 C38.21279197 182.37574204 35.91244538 173.65177372 32 166 C31.3591671 162.67932043 31.12905768 161.16852023 32 158 C33.97634084 155.17601861 36.18275527 152.66882198 38.46875 150.08984375 C44.68563898 142.50101784 50.12885921 133.60861083 50.3125 123.75 C50.34988281 122.44546875 50.38726563 121.1409375 50.42578125 119.796875 C49.83245829 114.50595831 47.51345667 111.60518132 43.9375 107.8125 C36.271827 103.08261666 26.76829786 102.36443669 17.98974609 101.17749023 C13.13893017 100.48603399 8.74421408 99.34215631 4.12548828 97.71337891 C-1.41109901 95.85513079 -7.26903853 95.05203248 -13 94 C-14.75183594 93.63455078 -14.75183594 93.63455078 -16.5390625 93.26171875 C-24.92346102 91.66141786 -31.02865831 91.66046267 -37.75 97.3125 Z M-354 208 C-355.30130859 208.38091797 -355.30130859 208.38091797 -356.62890625 208.76953125 C-381.09953653 215.44333951 -412.8872273 218.52613926 -438 214 C-437.63037377 219.41582774 -435.57712033 222.15824919 -431.875 225.875 C-430.85999363 226.93554423 -429.84566924 227.99674158 -428.83203125 229.05859375 C-428.09460693 229.82018799 -428.09460693 229.82018799 -427.34228516 230.59716797 C-425.68745641 232.32664159 -424.11851185 234.11893528 -422.5625 235.9375 C-418.97880907 240.07385652 -415.25679808 244.07877218 -411.52563477 248.08178711 C-408.83749447 250.97446469 -406.2036626 253.90257767 -403.6171875 256.88671875 C-399.90774347 261.14718123 -396.02565075 265.22775882 -392.125 269.3125 C-386.85463458 274.86755442 -381.8244972 280.47506508 -377.0625 286.47265625 C-374.84702196 289.18745605 -372.50959533 291.74533409 -370.125 294.3125 C-363.00812829 302.05015803 -356.61824527 310.37835504 -350.4375 318.875 C-349.633125 319.90625 -348.82875 320.9375 -348 322 C-347.34 322 -346.68 322 -346 322 C-345.73058594 322.72445312 -345.46117187 323.44890625 -345.18359375 324.1953125 C-344.0180171 326.95730602 -342.65452168 329.33910796 -341.0625 331.875 C-338.66130235 335.8206573 -336.65243748 339.67218755 -335 344 C-334.74766602 344.65532715 -334.49533203 345.3106543 -334.23535156 345.98583984 C-332.26791298 351.42515663 -331.42113713 356.28640845 -331.4375 362.0625 C-331.4377417 362.8774292 -331.4379834 363.6923584 -331.43823242 364.53198242 C-331.70974906 374.34564165 -335.20812732 382.73196529 -339.76171875 391.32421875 C-340.17035156 392.20722656 -340.57898438 393.09023438 -341 394 C-340.67 394.66 -340.34 395.32 -340 396 C-339.319375 395.71125 -338.63875 395.4225 -337.9375 395.125 C-335 395 -335 395 -331.75 397.1875 C-327.68495699 400.98800659 -324.51290212 405.4454008 -321.24609375 409.9296875 C-319.26603699 412.63633901 -317.23053349 415.26568855 -315.125 417.875 C-308.49271531 426.09903301 -301.89864311 434.36495679 -295.609375 442.85546875 C-294.23823495 444.68254614 -292.85071403 446.49395625 -291.453125 448.30078125 C-290.9981665 448.88915771 -290.54320801 449.47753418 -290.07446289 450.08374023 C-289.16359617 451.26012276 -288.25136583 452.43545094 -287.33764648 453.60961914 C-284.10957655 457.7808469 -284.10957655 457.7808469 -283 460 C-282.34 460 -281.68 460 -281 460 C-280.77570313 460.52335938 -280.55140625 461.04671875 -280.3203125 461.5859375 C-278.52119581 464.87544671 -276.21070169 467.70833497 -273.875 470.625 C-273.38435059 471.24383057 -272.89370117 471.86266113 -272.38818359 472.50024414 C-268.85430385 476.95187257 -265.28716839 481.37681993 -261.71875 485.80078125 C-260.10709264 487.8629701 -258.6060673 489.96798047 -257.125 492.125 C-256.42375 493.07375 -255.7225 494.0225 -255 495 C-254.34 495 -253.68 495 -253 495 C-252.7525 495.54785156 -252.505 496.09570312 -252.25 496.66015625 C-250.74360569 499.4799381 -248.93464489 501.89136913 -247 504.4375 C-246.60337158 504.96118164 -246.20674316 505.48486328 -245.7980957 506.02441406 C-242.53821198 510.31988035 -239.24192615 514.58749931 -235.94775391 518.85668945 C-228.3827501 528.67667425 -220.94935109 538.5990396 -213.71875 548.66796875 C-211.87688074 551.16705045 -209.95379013 553.58775473 -208 556 C-203.01987239 554.49087042 -199.75740058 551.44338151 -196 548 C-196.60399843 544.3923337 -198.04692477 542.40918792 -200.375 539.625 C-203.27643537 536.10293675 -206.13706438 532.56144809 -208.9362793 528.95825195 C-213.03460266 523.68503227 -217.21704366 518.50912013 -221.5625 513.4375 C-225.55965703 508.76957511 -229.36670569 503.99534168 -233.08129883 499.09667969 C-237.05415827 493.87677294 -241.19241631 488.797351 -245.35888672 483.73120117 C-248.53212222 479.85957629 -251.59320173 475.9256008 -254.58007812 471.90844727 C-259.54546945 465.23470862 -264.64157673 458.65295833 -269.875 452.1875 C-272.35812479 449.11921261 -274.75235127 446.00112266 -277.09375 442.82421875 C-277.63531738 442.09114502 -278.17688477 441.35807129 -278.73486328 440.6027832 C-279.81706187 439.13284243 -280.89369535 437.6587861 -281.96435547 436.18041992 C-282.45822754 435.50986572 -282.95209961 434.83931152 -283.4609375 434.1484375 C-284.12295166 433.23843994 -284.12295166 433.23843994 -284.79833984 432.31005859 C-285.39316162 431.66157959 -285.39316162 431.66157959 -286 431 C-286.66 431 -287.32 431 -288 431 C-288.27320068 430.41742432 -288.54640137 429.83484863 -288.82788086 429.23461914 C-289.97774767 427.04242358 -291.24704963 425.20609471 -292.75390625 423.24609375 C-293.28516113 422.54983887 -293.81641602 421.85358398 -294.36376953 421.13623047 C-294.90372559 420.43127441 -295.44368164 419.72631836 -296 419 C-296.99010566 417.67975165 -297.97842446 416.35816113 -298.96484375 415.03515625 C-305.31822352 406.52629655 -305.31822352 406.52629655 -311.8125 398.125 C-312.59753906 397.10792969 -312.59753906 397.10792969 -313.3984375 396.0703125 C-314.57351965 394.55130387 -315.76930462 393.0482516 -316.9765625 391.5546875 C-320.70946502 386.69150374 -322.81102381 383.33189232 -322.34375 377.10546875 C-322.10044198 375.61520714 -321.81193354 374.13200097 -321.4921875 372.65625 C-318.17510682 354.75454472 -324.55231487 336.10218934 -334 321 C-336.95360668 316.71446444 -340.23878215 312.71100615 -343.57666016 308.72216797 C-345.95265663 305.8473345 -348.21661861 302.88598354 -350.5 299.9375 C-353.27786716 296.36753013 -356.09733637 292.85485223 -359.06640625 289.44140625 C-359.56785156 288.86334229 -360.06929688 288.28527832 -360.5859375 287.68969727 C-361.53978849 286.59816242 -362.50153704 285.51345636 -363.47265625 284.43725586 C-366.86666035 280.55902536 -368.84133996 276.99338601 -369.1171875 271.7890625 C-368.45837588 265.90226194 -367.1550696 260.24909065 -365.65380859 254.52905273 C-364.23973385 249.1151486 -363.09561248 243.67369812 -362 238.1875 C-360.27269406 229.69434687 -357.7766181 221.89605981 -354.1875 214 C-352.63597115 211.02009975 -352.63597115 211.02009975 -354 208 Z M-302 234 C-301.28890753 236.65272793 -300.56908711 239.3024814 -299.8359375 241.94921875 C-299.34018293 243.75849127 -298.85995219 245.57232873 -298.4140625 247.39453125 C-296.38913234 255.11293386 -292.68975372 261.99341067 -289.01123047 269.02856445 C-288.33338252 270.35005701 -287.67622821 271.68235687 -287.03955078 273.02416992 C-284.75495552 277.82043326 -282.07416362 281.92372151 -278.75 286.0625 C-278.26039795 286.67464355 -277.7707959 287.28678711 -277.26635742 287.91748047 C-273.53623579 292.4983316 -269.70781558 296.41200463 -265 300 C-264.43120117 300.44585449 -263.86240234 300.89170898 -263.27636719 301.35107422 C-255.22614792 307.65714684 -247.2776337 313.60880682 -238 318 C-237.21318848 318.37366699 -236.42637695 318.74733398 -235.61572266 319.13232422 C-224.59994962 324.33327279 -213.6047349 329.25700331 -202 333 C-200.97519531 333.34417969 -199.95039063 333.68835938 -198.89453125 334.04296875 C-174.78277245 341.89966536 -174.78277245 341.89966536 -149.93554688 340.36547852 C-148 340 -148 340 -145.1171875 341.9140625 C-144.02886058 342.80854326 -142.94851928 343.71280063 -141.875 344.625 C-133.31949476 351.51982205 -124.65874582 355.29033423 -114.265625 358.8671875 C-111.68173963 359.76351137 -109.15775892 360.72293634 -106.625 361.75 C-98.12529282 364.68093351 -86.05275168 366.08366979 -77.65625 362.62109375 C-74.90228722 360.94036647 -74.03478236 360.00086885 -73 357 C-74.48135751 355.51864249 -75.96327119 355.56032452 -78.015625 355.203125 C-94.51406936 352.20776241 -119.42788182 346.7008744 -130 332 C-131.32094216 327.30405062 -130.75551956 323.75571194 -129.625 319.0625 C-128.51576731 314.3819527 -127.62159984 309.77169285 -127 305 C-131.79474447 308.37967662 -136.12352834 312.01664717 -140.375 316.0625 C-148.04810711 323.05050826 -154.54065627 326.94933106 -165.140625 326.4765625 C-180.92569946 324.52739339 -195.50769868 319.36318242 -210 313 C-210.96703857 312.57968506 -210.96703857 312.57968506 -211.95361328 312.15087891 C-223.15954862 307.24847215 -233.51994634 301.51540787 -243.56640625 294.5390625 C-245.80181786 292.82183223 -245.80181786 292.82183223 -248 293 C-248 292.34 -248 291.68 -248 291 C-250.83437977 288.89069413 -253.42188316 287.21022431 -256.75 286 C-259 285 -259 285 -259.76953125 283.28125 C-261.52463616 280.02734122 -264.19701394 277.90792384 -266.9375 275.5 C-279.53832142 264.12647439 -289.7045492 251.64787969 -298.5546875 237.1171875 C-299.82797892 234.88327369 -299.82797892 234.88327369 -302 234 Z M-92.4375 408.375 C-92.953125 408.91125 -93.46875 409.4475 -94 410 C-94.99 410.66 -95.98 411.32 -97 412 C-97 412.66 -97 413.32 -97 414 C-97.79664063 414.37125 -97.79664063 414.37125 -98.609375 414.75 C-101.61841857 416.32335612 -104.41230833 418.13562287 -107.25 420 C-108.32765625 420.70125 -109.4053125 421.4025 -110.515625 422.125 C-111.33546875 422.74375 -112.1553125 423.3625 -113 424 C-113 424.66 -113 425.32 -113 426 C-113.7321875 426.26683594 -114.464375 426.53367187 -115.21875 426.80859375 C-117.96418648 427.98465853 -120.0867247 429.31452833 -122.5 431.0625 C-123.36882812 431.68382812 -124.23765625 432.30515625 -125.1328125 432.9453125 C-126.07898438 433.62335938 -127.02515625 434.30140625 -128 435 C-130.12184162 436.48369376 -132.24697823 437.96268395 -134.375 439.4375 C-134.92260986 439.81704834 -135.47021973 440.19659668 -136.03442383 440.58764648 C-140.7047919 443.81560436 -145.42968607 446.95851375 -150.16015625 450.09765625 C-154.48837612 452.99702774 -158.74433817 455.995599 -163 459 C-168.57196492 462.91223069 -174.15486977 466.80848629 -179.75 470.6875 C-180.79671875 471.41324219 -181.8434375 472.13898438 -182.921875 472.88671875 C-185.93061973 474.9523671 -188.95855713 476.98299522 -192 479 C-188.15796247 482.17986818 -184.16308253 484.95812249 -180 487.6875 C-172.92907869 492.35928029 -165.94889821 497.14866128 -159 502 C-159.48101087 506.62765634 -161.2190816 508.78524169 -164.375 512.125 C-165.56222656 513.39730469 -165.56222656 513.39730469 -166.7734375 514.6953125 C-167.87558594 515.83613281 -167.87558594 515.83613281 -169 517 C-169.46535156 517.55429687 -169.93070312 518.10859375 -170.41015625 518.6796875 C-172.74206132 520.61625731 -175.16189396 521.17026764 -178.0625 522 C-179.78726562 522.50273438 -179.78726562 522.50273438 -181.546875 523.015625 C-183.25617188 523.50289062 -183.25617188 523.50289062 -185 524 C-186.93834493 524.58051955 -188.87595515 525.16350356 -190.8125 525.75 C-192.20818801 526.16715317 -193.60396057 526.58402437 -195 527 C-195 530.32716644 -194.73220599 530.85174346 -192.625 533.25 C-190.6531821 535.09771747 -189.52501949 535.92621348 -186.83203125 536.3046875 C-184.13095104 536.10199633 -181.63829785 535.61693347 -179 535 C-177.94941406 534.78085937 -176.89882813 534.56171875 -175.81640625 534.3359375 C-167.15542147 532.15283886 -162.12335324 528.34584475 -156 522 C-154.60587891 520.63875 -154.60587891 520.63875 -153.18359375 519.25 C-149.23622962 515.39231849 -145.39727465 511.48628386 -141.80078125 507.296875 C-137.40103973 502.22697021 -132.64231953 497.53404763 -127.875 492.8125 C-126.99457031 491.93658203 -126.11414063 491.06066406 -125.20703125 490.15820312 C-121.89637643 486.86502537 -118.58492957 483.57329745 -115.25 480.3046875 C-101.19618958 465.90929141 -91.2383133 453.58487531 -90.5 433.0625 C-90.27971642 426.96390833 -89.92520701 421.04060774 -89 415 C-88.94068524 413.52187625 -88.91155113 412.04158577 -88.9375 410.5625 C-88.958125 409.386875 -88.97875 408.21125 -89 407 C-91.09065752 406.76959245 -91.09065752 406.76959245 -92.4375 408.375 Z M-231.171875 557.08984375 C-243.00595391 570.05849193 -243.00595391 570.05849193 -246.20703125 586.7421875 C-245.56138576 596.90196741 -241.84429284 605.71351385 -234.19921875 612.62890625 C-228.09419027 617.1930816 -228.09419027 617.1930816 -221 619 C-220.9071875 619.56332031 -220.814375 620.12664062 -220.71875 620.70703125 C-219.20555608 625.53444881 -215.25200902 629.22633765 -212 633 C-211.32710938 633.7940625 -210.65421875 634.588125 -209.9609375 635.40625 C-205.29251015 640.51179601 -200.3876412 643.61074271 -194.16259766 646.46850586 C-190.43001916 648.19935901 -187.38474892 650.09324471 -184.25 652.75 C-175.43059028 660.06125787 -163.02681525 660.59699318 -152 660 C-151.01 659.67 -150.02 659.34 -149 659 C-149.6063831 655.91357813 -150.58510295 653.84649121 -152.4375 651.3125 C-153.08525391 650.40951172 -153.08525391 650.40951172 -153.74609375 649.48828125 C-156.65856751 646.03141987 -161.05430792 646.56475971 -165.25 646.1875 C-166.00152344 646.13013672 -166.75304687 646.07277344 -167.52734375 646.01367188 C-172.83137656 645.49067387 -175.7402392 644.18191223 -180 641 C-180.66 641 -181.32 641 -182 641 C-182 640.34 -182 639.68 -182 639 C-185.758633 635.988997 -190.04064986 633.9324631 -194.5 632.1875 C-201.90256384 628.97674942 -206.32275966 623.73682458 -209.625 616.5 C-212.83460243 610.07190427 -217.41697594 607.9657391 -223.66015625 604.94921875 C-228.28546077 602.24977202 -230.98121865 599.1345895 -233.3125 594.25 C-234.70742643 587.65580235 -235.23759287 582.25561486 -231.5 576.375 C-228.10956551 571.82468003 -224.14523333 567.86116912 -220 564 C-221.56367859 559.6347306 -223.11048112 557.62542525 -227 555 C-229.26214675 554.76887744 -229.26214675 554.76887744 -231.171875 557.08984375 Z M-130.8203125 641.77734375 C-131.91085937 642.16019531 -133.00140625 642.54304687 -134.125 642.9375 C-135.22070312 643.31777344 -136.31640625 643.69804688 -137.4453125 644.08984375 C-138.28835938 644.39019531 -139.13140625 644.69054687 -140 645 C-140 649.06666009 -137.93516918 651.02579915 -135.5 654.0625 C-135.04512207 654.64104736 -134.59024414 655.21959473 -134.12158203 655.81567383 C-132.75506892 657.54976318 -131.37883205 659.27569788 -130 661 C-129.28585937 661.89976562 -128.57171875 662.79953125 -127.8359375 663.7265625 C-125.89875556 666.15768724 -123.95054356 668.57958866 -122 671 C-120.66602881 672.66615618 -119.33270085 674.33282754 -118 676 C-117.33871094 676.82628906 -116.67742187 677.65257812 -115.99609375 678.50390625 C-114.67450816 680.15653481 -113.35417712 681.81016747 -112.03515625 683.46484375 C-110.0282329 685.98045262 -108.01589994 688.49157905 -106 691 C-105.278125 691.89847656 -104.55625 692.79695312 -103.8125 693.72265625 C-99.42228374 699.14182945 -94.88835234 704.37295595 -90.19140625 709.52734375 C-87.2939058 712.79671592 -84.59870223 716.20716857 -81.89453125 719.63671875 C-79.63886218 722.4504915 -77.26756543 725.1426693 -74.875 727.83984375 C-71.14431713 732.13790131 -67.58369185 736.57930076 -64 741 C-60.45544284 739.16431442 -60.45544284 739.16431442 -58 736.1875 C-58 727.04282625 -69.15513028 716.73417461 -74.625 709.9609375 C-84.56481094 697.56887058 -94.09583198 684.88982445 -103.47802734 672.07275391 C-106.18913396 668.3805346 -108.94085212 664.71954351 -111.69921875 661.0625 C-113.52490545 658.63238391 -115.33783499 656.19419501 -117.14453125 653.75 C-117.68964355 653.01547607 -118.23475586 652.28095215 -118.79638672 651.52416992 C-119.87278597 650.07354498 -120.94613889 648.62065356 -122.01611328 647.1652832 C-122.50450684 646.50874756 -122.99290039 645.85221191 -123.49609375 645.17578125 C-123.93107178 644.58708252 -124.3660498 643.99838379 -124.81420898 643.3918457 C-126.91604224 640.92477727 -127.65640421 640.90529701 -130.8203125 641.77734375 Z M1 791 C1.33 791.99 1.66 792.98 2 794 C2 793.01 2 792.02 2 791 C1.67 791 1.34 791 1 791 Z M11.9375 130.8125 C13.11634766 130.97814453 14.29519531 131.14378906 15.50976562 131.31445312 C22.51998754 132.36459943 28.25724614 133.25724614 33.4375 138.4375 C35 141 35 141 34.9375 143.1875 C34 145 34 145 31 147 C29.55110081 147.31745544 28.09070153 147.58489106 26.625 147.8125 C21.94140353 148.75227547 19.98721346 150.33825446 17 154 C13.74592488 152.97729068 12.03612163 152.0370722 9.625 149.5625 C3.88900928 143.96308048 -3.02801123 143.29737234 -10.6953125 142.0390625 C-14.64681149 140.79662901 -16.4180979 139.2005843 -19 136 C-19 133.3125 -19 133.3125 -18 131 C-10.181378 125.78758533 3.12248493 129.45596438 11.9375 130.8125 Z M12 166.1875 C16.36787565 167.37046632 16.36787565 167.37046632 18 170 C18.5 172.9375 18.5 172.9375 18 176 C15.875 178.5 15.875 178.5 13 180 C9.15375329 179.46152546 7.54091681 178.62543506 5 175.6875 C4 173 4 173 4.625 170.3125 C6.63242638 166.93637381 8.05150238 165.9407189 12 166.1875 Z M-86 608 C-85.01 608 -84.02 608 -83 608 C-79.54246227 617.38516718 -78.37451648 625.71678876 -78.5 635.6875 C-78.48453125 636.92822266 -78.4690625 638.16894531 -78.453125 639.44726562 C-78.48561947 647.1200231 -79.50685544 653.13803978 -83 660 C-87.2751424 655.90933841 -90.98207091 651.48265701 -94.6875 646.875 C-95.26822266 646.15957031 -95.84894531 645.44414063 -96.44726562 644.70703125 C-103.02398599 636.57166617 -103.02398599 636.57166617 -102.8828125 633.20703125 C-101.82972071 629.38141905 -100.19208808 626.90393244 -97.875 623.6875 C-97.47265137 623.12716064 -97.07030273 622.56682129 -96.65576172 621.98950195 C-95.44832339 620.31786643 -94.22494799 618.65882578 -93 617 C-92.32453125 616.0615625 -91.6490625 615.123125 -90.953125 614.15625 C-87.53113661 609.53510328 -87.53113661 609.53510328 -86 608 Z M167 715 C174.68707144 721.30684914 177.67991276 730.47078007 178.94921875 739.99609375 C178.99875187 742.92616821 178.86773998 744.26227904 177.3125 746.6875 C173.74373068 750.25626932 171.6496766 751.29191006 166.6875 751.3125 C161.96939371 751.20119474 158.98726573 750.68707038 155 748 C154.22140625 747.51273438 153.4428125 747.02546875 152.640625 746.5234375 C146.25588842 742.18102349 146.25588842 742.18102349 145.1875 737.25 C146.04466824 730.27020144 148.65177533 721.736999 154 717 C158.29523675 715.32963015 162.43611251 714.1260641 167 715 Z M135 760 C142.22692522 764.02089555 148.36907677 770.59655764 152 778 C152.46639787 782.32156004 151.94749558 786.10500884 150 790 C145.05555399 791.76899902 140.7242458 792.29623309 135.4375 792.3125 C134.17808594 792.32925781 132.91867187 792.34601562 131.62109375 792.36328125 C127.76346101 791.97626955 125.3243081 790.94131397 122 789 C122 788.34 122 787.68 122 787 C121.360625 786.731875 120.72125 786.46375 120.0625 786.1875 C118 785 118 785 117 782 C116.34 782 115.68 782 115 782 C113.75 779.4375 113.75 779.4375 113 776 C116.09629945 767.63999148 125.68414523 758.64496658 135 760 Z M201 764 C203.98018155 768.00236942 205.78570918 772.37751236 206.4375 777.3125 C204.00816851 781.85429365 199.72742436 783.36115956 195 785 C191.10046613 785.51141428 188.93920934 785.37131532 185.3125 783.9375 C181.5845009 780.8140413 179.49543192 777.25696761 178.4375 772.4375 C179.31347869 768.64159235 180.82902017 766.18168654 184 764 C189.80814041 762.16289482 195.49734368 760.82897771 201 764 Z " transform="translate(609,36)" style="fill: #010201;"/></svg>